<svg width="124" height="31" viewBox="0 0 124 31" fill="none" xmlns="http://www.w3.org/2000/svg">
<path d="M18.88 30V24.24H6.96V1.52H0.24V30H18.88ZM21.4591 15.76C21.4591 24.8 27.8591 31 37.2191 31C46.5391 31 52.9791 24.8 52.9791 15.76C52.9791 6.76 46.5391 0.519998 37.2191 0.519998C27.8591 0.519998 21.4591 6.76 21.4591 15.76ZM28.1791 15.76C28.1791 10.2 31.8991 6.28 37.2191 6.28C42.5391 6.28 46.2591 10.2 46.2591 15.76C46.2591 21.32 42.5391 25.24 37.2191 25.24C31.8991 25.2 28.1791 21.32 28.1791 15.76ZM81.1306 18.24C80.8906 22.2 77.2506 25.24 72.7306 25.24C67.3706 25.24 63.5306 21.24 63.5306 15.76C63.5306 10.24 67.2906 6.28 72.5306 6.28C75.8906 6.28 78.9306 8.2 79.8506 10.84L86.0106 9.48C84.6106 4.24 79.0906 0.519998 72.5706 0.519998C63.4106 0.519998 56.8106 6.92 56.8106 15.76C56.8106 24.6 63.4106 31 72.5706 31C82.1706 31 88.5306 23.8 87.6106 13.84H72.3306V18.24H81.1306ZM91.5372 15.76C91.5372 24.8 97.9372 31 107.297 31C116.617 31 123.057 24.8 123.057 15.76C123.057 6.76 116.617 0.519998 107.297 0.519998C97.9372 0.519998 91.5372 6.76 91.5372 15.76ZM98.2572 15.76C98.2572 10.2 101.977 6.28 107.297 6.28C112.617 6.28 116.337 10.2 116.337 15.76C116.337 21.32 112.617 25.24 107.297 25.24C101.977 25.2 98.2572 21.32 98.2572 15.76Z" fill="#4A99D3"/>
</svg>
