<svg width="42" height="42" viewBox="0 0 42 42" fill="none" xmlns="http://www.w3.org/2000/svg">
<path d="M36.2103 5.38525H6.7512C6.04274 5.38525 5.47037 5.95763 5.47037 6.66609V36.1252C5.47037 36.8337 6.04274 37.406 6.7512 37.406H36.2103C36.9188 37.406 37.4911 36.8337 37.4911 36.1252V6.66609C37.4911 5.95763 36.9188 5.38525 36.2103 5.38525ZM32.5119 14.7313H29.9543C27.949 14.7313 27.5607 15.6839 27.5607 17.0848V20.1708H32.3478L31.7234 25.002H27.5607V37.406H22.5695V25.006H18.3948V20.1708H22.5695V16.6085C22.5695 12.4739 25.0951 10.2204 28.7855 10.2204C30.5546 10.2204 32.0716 10.3525 32.5159 10.4125V14.7313H32.5119Z" fill="#2091F9"/>
</svg>
