<svg width="27" height="33" viewBox="0 0 27 33" fill="none" xmlns="http://www.w3.org/2000/svg">
<g clip-path="url(#clip0_522_435)">
<path d="M13.4998 19.884C16.9927 19.884 19.8332 17.0435 19.8332 13.5506C19.8332 10.0578 16.9927 7.21729 13.4998 7.21729C10.007 7.21729 7.1665 10.0578 7.1665 13.5506C7.1665 17.0435 10.007 19.884 13.4998 19.884ZM13.4998 10.384C15.2463 10.384 16.6665 11.8042 16.6665 13.5506C16.6665 15.297 15.2463 16.7173 13.4998 16.7173C11.7534 16.7173 10.3332 15.297 10.3332 13.5506C10.3332 11.8042 11.7534 10.384 13.4998 10.384Z" fill="#2091F9"/>
<path d="M12.2487 32.2562C12.5166 32.4476 12.8377 32.5504 13.167 32.5504C13.4963 32.5504 13.8173 32.4476 14.0853 32.2562C14.5667 31.9158 25.8796 23.7474 25.8337 13.5507C25.8337 6.56662 20.1511 0.884033 13.167 0.884033C6.18291 0.884033 0.500322 6.56662 0.500322 13.5428C0.454406 23.7474 11.7673 31.9158 12.2487 32.2562ZM13.167 4.0507C18.4062 4.0507 22.667 8.31145 22.667 13.5586C22.7002 20.5854 15.7193 26.895 13.167 28.9644C10.6162 26.8934 3.63374 20.5823 3.66699 13.5507C3.66699 8.31145 7.92774 4.0507 13.167 4.0507Z" fill="#2091F9"/>
</g>
<defs>
<clipPath id="clip0_522_435">
<rect width="26" height="32" fill="white" transform="translate(0.5 0.717285)"/>
</clipPath>
</defs>
</svg>
