<svg width="41" height="42" viewBox="0 0 41 42" fill="none" xmlns="http://www.w3.org/2000/svg">
<path d="M37.1449 11.081C35.9201 11.6094 34.5873 11.9896 33.2144 12.1377C34.6398 11.2909 35.7072 9.95311 36.2163 8.37529C34.8788 9.17096 33.4135 9.7289 31.8855 10.0244C31.2469 9.34162 30.4745 8.79772 29.6165 8.42655C28.7584 8.05538 27.8332 7.86489 26.8983 7.86696C23.1158 7.86696 20.0739 10.9329 20.0739 14.6954C20.0739 15.2237 20.1379 15.7521 20.242 16.2604C14.5783 15.9642 9.52702 13.2585 6.16884 9.11577C5.55695 10.1609 5.23629 11.3509 5.24024 12.562C5.24024 14.9315 6.44502 17.0209 8.28221 18.2497C7.19953 18.2071 6.1422 17.9095 5.19621 17.3811V17.4652C5.19621 20.7833 7.54173 23.5331 10.6678 24.1655C10.0808 24.318 9.47702 24.396 8.8706 24.3977C8.42631 24.3977 8.00604 24.3537 7.58176 24.2936C8.44632 26.9994 10.964 28.9647 13.9619 29.0287C11.6164 30.8659 8.67847 31.9466 5.4884 31.9466C4.91603 31.9466 4.38769 31.9266 3.83933 31.8625C6.8653 33.8038 10.4556 34.9245 14.3221 34.9245C26.8743 34.9245 33.7427 24.5258 33.7427 15.4999C33.7427 15.2037 33.7427 14.9075 33.7227 14.6113C35.0516 13.6387 36.2163 12.4339 37.1449 11.081Z" fill="#2091F9"/>
</svg>
