<svg width="42" height="42" viewBox="0 0 42 42" fill="none" xmlns="http://www.w3.org/2000/svg">
<path d="M36.1981 5.38525H6.73898C6.03052 5.38525 5.45815 5.95763 5.45815 6.66609V36.1252C5.45815 36.8337 6.03052 37.406 6.73898 37.406H36.1981C36.9066 37.406 37.4789 36.8337 37.4789 36.1252V6.66609C37.4789 5.95763 36.9066 5.38525 36.1981 5.38525ZM14.9563 32.671H10.2052V17.389H14.9563V32.671ZM12.5828 15.2997C12.0381 15.2997 11.5057 15.1382 11.0529 14.8356C10.6 14.533 10.247 14.1029 10.0386 13.5997C9.83018 13.0965 9.77565 12.5428 9.8819 12.0087C9.98816 11.4745 10.2504 10.9838 10.6356 10.5987C11.0207 10.2136 11.5114 9.95128 12.0455 9.84503C12.5797 9.73877 13.1334 9.7933 13.6366 10.0017C14.1398 10.2102 14.5699 10.5631 14.8725 11.016C15.1751 11.4688 15.3366 12.0013 15.3366 12.5459C15.3326 14.0669 14.0998 15.2997 12.5828 15.2997ZM32.7439 32.671H27.9968V25.2381C27.9968 23.465 27.9648 21.1875 25.5272 21.1875C23.0576 21.1875 22.6773 23.1168 22.6773 25.1101V32.671H17.9342V17.389H22.4892V19.4784H22.5532C23.1857 18.2776 24.7347 17.0088 27.0482 17.0088C31.8593 17.0088 32.7439 20.1748 32.7439 24.2895V32.671Z" fill="#2091F9"/>
</svg>
