<svg width="61" height="61" viewBox="0 0 61 61" fill="none" xmlns="http://www.w3.org/2000/svg">
<path d="M52.6379 11.7679L49.2321 8.36209C48.2917 7.37084 46.6396 7.37084 45.6483 8.36209L22.875 31.1354L29.8646 38.125L52.6379 15.3517C53.6292 14.3604 53.6292 12.7083 52.6379 11.7679ZM17.7917 35.5833C15.7694 35.5833 13.83 36.3867 12.4 37.8167C10.97 39.2466 10.1667 41.1861 10.1667 43.2083C10.1667 46.5379 7.21834 48.2917 5.08334 48.2917C7.42168 51.3925 11.4375 53.375 15.25 53.375C17.9464 53.375 20.5323 52.3039 22.4389 50.3973C24.3456 48.4906 25.4167 45.9047 25.4167 43.2083C25.4167 41.1861 24.6133 39.2466 23.1834 37.8167C21.7534 36.3867 19.814 35.5833 17.7917 35.5833Z" fill="#2091F9"/>
</svg>
