<svg width="46" height="47" viewBox="0 0 46 47" fill="none" xmlns="http://www.w3.org/2000/svg">
<path d="M23 27.1366C27.2282 27.1366 30.6667 23.6981 30.6667 19.4699C30.6667 15.2417 27.2282 11.8032 23 11.8032C18.7718 11.8032 15.3333 15.2417 15.3333 19.4699C15.3333 23.6981 18.7718 27.1366 23 27.1366ZM23 15.6366C25.1141 15.6366 26.8333 17.3558 26.8333 19.4699C26.8333 21.584 25.1141 23.3032 23 23.3032C20.8859 23.3032 19.1667 21.584 19.1667 19.4699C19.1667 17.3558 20.8859 15.6366 23 15.6366Z" fill="white"/>
<path d="M21.8884 42.1133C22.2128 42.345 22.6015 42.4695 23.0001 42.4695C23.3987 42.4695 23.7874 42.345 24.1117 42.1133C24.6944 41.7012 38.389 31.8131 38.3334 19.4698C38.3334 11.0154 31.4545 4.13647 23.0001 4.13647C14.5457 4.13647 7.66675 11.0154 7.66675 19.4602C7.61117 31.8131 21.3057 41.7012 21.8884 42.1133ZM23.0001 7.96981C29.3423 7.96981 34.5001 13.1276 34.5001 19.4794C34.5403 27.9856 26.0897 35.6235 23.0001 38.1286C19.9123 35.6216 11.4598 27.9817 11.5001 19.4698C11.5001 13.1276 16.6578 7.96981 23.0001 7.96981Z" fill="white"/>
</svg>
