<svg width="42" height="42" viewBox="0 0 42 42" fill="none" xmlns="http://www.w3.org/2000/svg">
<path d="M37.6852 10.6853C36.4604 11.2136 35.1275 11.5939 33.7546 11.742C35.18 10.8952 36.2474 9.55736 36.7565 7.97954C35.419 8.77521 33.9537 9.33315 32.4257 9.62861C31.7871 8.94587 31.0147 8.40197 30.1567 8.0308C29.2987 7.65963 28.3734 7.46914 27.4385 7.47121C23.6561 7.47121 20.6141 10.5372 20.6141 14.2996C20.6141 14.828 20.6781 15.3563 20.7822 15.8647C15.1185 15.5685 10.0672 12.8627 6.70906 8.72002C6.09716 9.76516 5.77651 10.9552 5.78046 12.1663C5.78046 14.5358 6.98524 16.6251 8.82243 17.8539C7.73974 17.8113 6.68241 17.5137 5.73643 16.9854V17.0694C5.73643 20.3876 8.08195 23.1374 11.208 23.7698C10.621 23.9222 10.0172 24.0002 9.41081 24.0019C8.96652 24.0019 8.54625 23.9579 8.12197 23.8979C8.98654 26.6036 11.5042 28.5689 14.5021 28.6329C12.1566 30.4701 9.21869 31.5508 6.02862 31.5508C5.45625 31.5508 4.9279 31.5308 4.37955 31.4668C7.40551 33.408 10.9958 34.5288 14.8623 34.5288C27.4145 34.5288 34.2829 24.13 34.2829 15.1042C34.2829 14.808 34.2829 14.5118 34.2629 14.2156C35.5918 13.243 36.7565 12.0382 37.6852 10.6853Z" fill="white"/>
</svg>
